HIERARCHY
ROOT Hips
{
	OFFSET 0.000000 0.000000 0.000000
	CHANNELS 6 Xposition Yposition Zposition Xrotation Yrotation Zrotation
	JOINT LeftUpLeg_virtual
	{
		OFFSET 0.000000 0.000000 0.000000
		CHANNELS 3 Xrotation Yrotation Zrotation
		JOINT LeftUpLeg
		{
			OFFSET 10.205400 -3.823500 0.155100
			CHANNELS 3 Xrotation Yrotation Zrotation
			JOINT LeftLeg
			{
				OFFSET 0.708757 -12.982077 0.567790
				CHANNELS 3 Xrotation Yrotation Zrotation
				JOINT LeftFoot
				{
					OFFSET -0.708756 -10.717838 -2.184338
					CHANNELS 3 Xrotation Yrotation Zrotation
					JOINT LeftToeBase
					{
						OFFSET 0.108149 -7.191104 7.560241
						CHANNELS 3 Xrotation Yrotation Zrotation
						JOINT LeftToe_End
						{
							OFFSET 0.070230 0.081724 4.490308
							CHANNELS 3 Xrotation Yrotation Zrotation
							End Site
							{
								OFFSET 0 0 0
							}
						}
					}
				}
			}
		}
	}
	JOINT RightUpLeg_virtual
	{
		OFFSET 0.000000 0.000000 0.000000
		CHANNELS 3 Xrotation Yrotation Zrotation
		JOINT RightUpLeg
		{
			OFFSET -10.205400 -3.823500 0.005500
			CHANNELS 3 Xrotation Yrotation Zrotation
			JOINT RightLeg
			{
				OFFSET -0.708756 -12.982134 0.610632
				CHANNELS 3 Xrotation Yrotation Zrotation
				JOINT RightFoot
				{
					OFFSET 0.708754 -10.717769 -1.945823
					CHANNELS 3 Xrotation Yrotation Zrotation
					JOINT RightToeBase
					{
						OFFSET -0.108140 -7.191069 7.372968
						CHANNELS 3 Xrotation Yrotation Zrotation
						JOINT RightToe_End
						{
							OFFSET -0.070227 0.081735 4.479403
							CHANNELS 3 Xrotation Yrotation Zrotation
							End Site
							{
								OFFSET 0 0 0
							}
						}
					}
				}
			}
		}
	}
	JOINT Spine_virtual
	{
		OFFSET 0.000000 0.000000 0.000000
		CHANNELS 3 Xrotation Yrotation Zrotation
		JOINT Spine
		{
			OFFSET 0.000000 6.876099 0.125700
			CHANNELS 3 Xrotation Yrotation Zrotation
			JOINT Spine1
			{
				OFFSET 0.000000 5.730043 0.104720
				CHANNELS 3 Xrotation Yrotation Zrotation
				JOINT Spine1_split
				{
					OFFSET 0.000000 5.730043 0.104720
					CHANNELS 3 Xrotation Yrotation Zrotation
					JOINT Spine2
					{
						OFFSET 0.000000 5.730043 0.104720
						CHANNELS 3 Xrotation Yrotation Zrotation
						JOINT Neck_virtual
						{
							OFFSET 0.000000 0.000000 0.000000
							CHANNELS 3 Xrotation Yrotation Zrotation
							JOINT Neck
							{
								OFFSET 0.000000 10.314075 0.188496
								CHANNELS 3 Xrotation Yrotation Zrotation
								JOINT Head
								{
									OFFSET 0.000000 7.643700 -2.377400
									CHANNELS 3 Xrotation Yrotation Zrotation
									JOINT HeadTop_End
									{
										OFFSET 0.000000 43.788605 -13.619600
										CHANNELS 3 Xrotation Yrotation Zrotation
										End Site
										{
											OFFSET 0 0 0
										}
									}
								}
							}
						}
						JOINT LeftShoulder_virtual
						{
							OFFSET 0.000000 0.000000 0.000000
							CHANNELS 3 Xrotation Yrotation Zrotation
							JOINT LeftShoulder
							{
								OFFSET 2.196100 4.412489 0.087492
								CHANNELS 3 Xrotation Yrotation Zrotation
								JOINT LeftShoulder_split
								{
									OFFSET 2.196100 4.412489 0.087492
									CHANNELS 3 Xrotation Yrotation Zrotation
									JOINT LeftArm
									{
										OFFSET 8.771219 -2.981674 -0.026999
										CHANNELS 3 Xrotation Yrotation Zrotation
										JOINT LeftForeArm
										{
											OFFSET 8.512804 0.000000 -0.000000
											CHANNELS 3 Xrotation Yrotation Zrotation
											JOINT LeftHand
											{
												OFFSET 18.484802 0.000000 -0.000000
												CHANNELS 3 Xrotation Yrotation Zrotation
												End Site
												{
													OFFSET 0 0 0
												}
											}
										}
									}
								}
							}
						}
						JOINT RightShoulder_virtual
						{
							OFFSET 0.000000 0.000000 0.000000
							CHANNELS 3 Xrotation Yrotation Zrotation
							JOINT RightShoulder
							{
								OFFSET -2.196100 4.412496 0.070690
								CHANNELS 3 Xrotation Yrotation Zrotation
								JOINT RightShoulder_split
								{
									OFFSET -2.196100 4.412496 0.070690
									CHANNELS 3 Xrotation Yrotation Zrotation
									JOINT RightArm
									{
										OFFSET -8.771282 -2.981682 -0.094208
										CHANNELS 3 Xrotation Yrotation Zrotation
										JOINT RightForeArm
										{
											OFFSET -8.494598 0.000000 0.000000
											CHANNELS 3 Xrotation Yrotation Zrotation
											JOINT RightHand
											{
												OFFSET -18.483803 0.000000 0.000001
												CHANNELS 3 Xrotation Yrotation Zrotation
												End Site
												{
													OFFSET 0 0 0
												}
											}
										}
									}
								}
							}
						}
					}
				}
			}
		}
	}
}
MOTION
Frames: 8
Frame Time: 0.03333333
-1.705452 28.813545 33.829781 0.000000 0.000000 0.000000 25.964884 16.166713 -5.606073 -3.194635 7.307243 6.728178 26.597795 13.805153 1.970164 -33.530973 17.212118 -34.883743 -13.068078 -4.360710 3.956403 0.000000 0.000000 0.000000 26.909492 16.637731 -5.842887 -66.053257 -9.768906 -0.059969 61.674368 -34.425417 -10.082797 -12.736876 1.113677 -1.352712 -6.786126 10.214994 5.641868 0.000000 0.000000 0.000000 28.452606 9.831810 -4.606954 5.507821 -0.365891 0.582217 8.894236 -0.332142 3.837736 1.043036 -0.773403 1.387034 0.000000 0.000000 0.000000 10.355558 0.163052 3.320286 -6.965981 -0.399447 -0.222986 -6.684280 6.561993 2.805389 0.000000 0.000000 0.000000 11.784040 -0.481643 3.462111 2.220232 -19.839353 2.934885 1.200450 -1.054016 -3.521462 -39.505896 -22.385779 -40.686897 109.507822 -63.553380 121.102205 0.000000 0.000000 0.000000 10.453618 0.274805 4.090729 3.258667 10.627178 -1.789911 3.037715 5.637292 0.867378 -46.343387 14.203180 35.382470 120.068824 46.721038 -141.497204 0.000000 0.000000 0.000000 
-1.737985 28.700075 34.041286 0.000000 0.000000 0.000000 26.117045 16.309609 -5.640345 -3.710165 7.408264 6.990851 27.344819 13.836480 2.085617 -33.427424 17.350972 -35.772740 -13.906882 -4.481897 3.990699 0.000000 0.000000 0.000000 27.081895 16.789057 -5.878867 -66.948203 -9.948057 -0.121140 62.946559 -34.436123 -10.188986 -12.762080 1.253988 -1.318285 -7.450578 10.022473 5.818061 0.000000 0.000000 0.000000 28.630739 9.877151 -4.625641 5.534713 -0.310843 0.611680 8.423802 -0.302224 3.825186 1.052466 -0.775034 1.364214 0.000000 0.000000 0.000000 9.863795 0.188182 3.318417 -7.206473 -0.370122 -0.332231 -6.719764 6.353410 2.816321 0.000000 0.000000 0.000000 11.281299 -0.443671 3.448115 2.354106 -19.931170 3.414621 1.205131 -1.008830 -3.484408 -39.987442 -22.528199 -40.583177 107.753201 -64.051916 119.426650 0.000000 0.000000 0.000000 9.973930 0.307853 4.070390 3.331061 10.431320 -2.196460 3.095851 5.703621 0.816654 -47.079965 14.258041 35.824906 119.586736 47.116216 -140.766155 0.000000 0.000000 0.000000 
-1.767341 28.598713 34.240345 0.000000 0.000000 0.000000 26.302848 16.435556 -5.696691 -4.305197 7.536356 7.274526 28.078670 13.890391 2.203392 -33.290690 17.469283 -36.629229 -14.695196 -4.609641 4.022934 0.000000 0.000000 0.000000 27.283242 16.920061 -5.935035 -67.785987 -10.155532 -0.194383 64.006884 -34.415592 -10.351242 -12.767321 1.403888 -1.198749 -8.079561 9.868537 5.947143 0.000000 0.000000 0.000000 28.837393 9.919312 -4.671263 5.575645 -0.269231 0.646598 7.926516 -0.273257 3.820516 1.056592 -0.772180 1.351241 0.000000 0.000000 0.000000 9.340410 0.209602 3.321178 -7.433350 -0.317319 -0.466149 -6.743761 6.184492 2.827806 0.000000 0.000000 0.000000 10.747631 -0.408481 3.440776 2.478067 -20.025544 3.867723 1.221813 -0.967732 -3.437886 -40.606595 -22.735106 -40.564753 105.591098 -64.561537 117.314127 0.000000 0.000000 0.000000 9.463759 0.338797 4.057471 3.399742 10.225485 -2.630130 3.180144 5.776699 0.771458 -47.913593 14.258429 36.295171 118.967142 47.589712 -139.902382 0.000000 0.000000 0.000000 
-1.789477 28.505001 34.432350 0.000000 0.000000 0.000000 26.532654 16.534911 -5.786935 -4.967870 7.674830 7.595146 28.816271 13.962957 2.325241 -33.132035 17.571961 -37.456573 -15.452046 -4.744629 4.057502 0.000000 0.000000 0.000000 27.521308 17.019923 -6.024541 -68.557819 -10.423688 -0.241662 64.898285 -34.389094 -10.546088 -12.872320 1.559419 -1.082436 -8.612944 9.744450 6.059137 0.000000 0.000000 0.000000 29.075658 9.933016 -4.744007 5.622494 -0.235925 0.688735 7.404848 -0.245740 3.816378 1.062342 -0.757607 1.342662 0.000000 0.000000 0.000000 8.785056 0.226114 3.319507 -7.638954 -0.247564 -0.611773 -6.778798 6.044153 2.851402 0.000000 0.000000 0.000000 10.185386 -0.378650 3.432477 2.591908 -20.115956 4.306799 1.241082 -0.923841 -3.395584 -41.329499 -23.025468 -40.619210 103.071441 -65.051077 114.809510 0.000000 0.000000 0.000000 8.920317 0.364205 4.043581 3.464286 10.014952 -3.080674 3.287357 5.835960 0.735922 -48.796958 14.153332 36.795346 118.225042 48.129474 -138.931840 0.000000 0.000000 0.000000 
-1.806064 28.411528 34.622192 0.000000 0.000000 0.000000 26.815937 16.596583 -5.906434 -5.673849 7.805778 7.954480 29.570157 14.053447 2.457646 -32.990975 17.664194 -38.240153 -16.241700 -4.892538 4.120819 0.000000 0.000000 0.000000 27.798014 17.093996 -6.148075 -69.282721 -10.770860 -0.256124 65.775009 -34.389316 -10.698987 -13.116389 1.702331 -1.078196 -9.061818 9.631532 6.198042 0.000000 0.000000 0.000000 29.349798 9.917786 -4.835898 5.667318 -0.206729 0.733352 6.864539 -0.220165 3.805347 1.054773 -0.755057 1.348460 0.000000 0.000000 0.000000 8.204266 0.237500 3.307517 -7.817589 -0.171724 -0.754659 -6.846413 5.913470 2.890147 0.000000 0.000000 0.000000 9.598932 -0.354435 3.417669 2.698463 -20.202938 4.747133 1.276216 -0.874177 -3.365733 -42.117576 -23.395449 -40.706049 100.303992 -65.501740 112.026748 0.000000 0.000000 0.000000 8.346834 0.383519 4.020763 3.522842 9.801374 -3.543274 3.413934 5.886003 0.707113 -49.684719 13.935520 37.319686 117.412823 48.705389 -137.913226 0.000000 0.000000 0.000000 
-1.818562 28.314148 34.814201 0.000000 0.000000 0.000000 27.151662 16.629337 -6.048885 -6.389753 7.907798 8.327616 30.343925 14.161108 2.608368 -32.892647 17.754337 -38.974675 -17.093219 -5.054184 4.215901 0.000000 0.000000 0.000000 28.111095 17.146835 -6.292227 -70.032600 -11.172000 -0.259946 66.750100 -34.411111 -10.769639 -13.425093 1.816686 -1.187028 -9.533511 9.499617 6.388145 0.000000 0.000000 0.000000 29.650773 9.872942 -4.933781 5.699726 -0.179485 0.770987 6.310153 -0.195289 3.784584 1.035309 -0.775965 1.357104 0.000000 0.000000 0.000000 7.607221 0.244864 3.282385 -7.965673 -0.101500 -0.888095 -6.961967 5.778130 2.942685 0.000000 0.000000 0.000000 8.994111 -0.335470 3.394353 2.798726 -20.285500 5.195874 1.304686 -0.819187 -3.352408 -42.926195 -23.820341 -40.774266 97.425716 -65.911517 109.110086 0.000000 0.000000 0.000000 7.746986 0.394768 3.985661 3.573472 9.593863 -4.006316 3.550438 5.919876 0.673548 -50.535771 13.625668 37.856180 116.591124 49.283493 -136.907303 0.000000 0.000000 0.000000 
-1.829364 28.208139 35.016140 0.000000 0.000000 0.000000 27.536599 16.633993 -6.194705 -7.094395 7.954897 8.699982 31.137244 14.264737 2.780171 -32.829133 17.853898 -39.701028 -17.994029 -5.223678 4.337559 0.000000 0.000000 0.000000 28.462406 17.184049 -6.441749 -70.895075 -11.571870 -0.293299 67.901820 -34.395672 -10.754611 -13.701894 1.904768 -1.308994 -10.161130 9.315493 6.624890 0.000000 0.000000 0.000000 29.977721 9.803543 -5.024368 5.712673 -0.151240 0.788623 5.751243 -0.172262 3.755445 1.007825 -0.807582 1.371320 0.000000 0.000000 0.000000 7.003767 0.250499 3.247840 -8.076021 -0.047060 -1.006483 -7.131240 5.628925 2.996163 0.000000 0.000000 0.000000 8.381962 -0.319612 3.366285 2.896229 -20.371797 5.649617 1.336775 -0.771417 -3.362418 -43.693533 -24.278812 -40.783521 94.537850 -66.287136 106.167586 0.000000 0.000000 0.000000 7.131517 0.400808 3.942207 3.614754 9.404684 -4.454447 3.683621 5.948342 0.636451 -51.313244 13.274300 38.383539 115.763647 49.848271 -135.918661 0.000000 0.000000 0.000000 
-1.841103 28.091789 35.226532 0.000000 0.000000 0.000000 27.962502 16.616069 -6.326890 -7.777787 7.934058 9.051085 31.934157 14.358700 2.967485 -32.785499 17.969065 -40.433757 -18.895215 -5.391580 4.467559 0.000000 0.000000 0.000000 28.862081 17.212545 -6.580309 -71.900561 -11.928462 -0.391783 69.243850 -34.306630 -10.672370 -13.872793 1.967460 -1.370075 -10.989269 9.061883 6.881173 0.000000 0.000000 0.000000 30.324042 9.720197 -5.097644 5.701954 -0.122162 0.777754 5.196289 -0.151059 3.723685 0.991983 -0.853219 1.387994 0.000000 0.000000 0.000000 6.401585 0.254304 3.210057 -8.141160 -0.016945 -1.105109 -7.347884 5.457548 3.029740 0.000000 0.000000 0.000000 7.770205 -0.307579 3.338308 2.993381 -20.470724 6.094235 1.363290 -0.755878 -3.379084 -44.369674 -24.746800 -40.714157 91.675646 -66.638857 103.241041 0.000000 0.000000 0.000000 6.511319 0.404049 3.897623 3.643313 9.243948 -4.860765 3.800570 5.998026 0.597698 -51.982572 12.936868 38.871057 114.893303 50.403108 -134.901810 0.000000 0.000000 0.000000 
